<?xml version="1.0" standalone="no"?><!DOCTYPE svg PUBLIC "-//W3C//DTD SVG 1.1//EN" "http://www.w3.org/Graphics/SVG/1.1/DTD/svg11.dtd"><svg t="1627367686287" class="icon" viewBox="0 0 1024 1024" version="1.1" xmlns="http://www.w3.org/2000/svg" p-id="26517" data-spm-anchor-id="a313x.7781069.0.i6" xmlns:xlink="http://www.w3.org/1999/xlink" width="200" height="200"><defs><style type="text/css">@font-face { font-family: feedback-iconfont; src: url("//at.alicdn.com/t/font_1031158_1uhr8ri0pk5.eot?#iefix") format("embedded-opentype"), url("//at.alicdn.com/t/font_1031158_1uhr8ri0pk5.woff2") format("woff2"), url("//at.alicdn.com/t/font_1031158_1uhr8ri0pk5.woff") format("woff"), url("//at.alicdn.com/t/font_1031158_1uhr8ri0pk5.ttf") format("truetype"), url("//at.alicdn.com/t/font_1031158_1uhr8ri0pk5.svg#iconfont") format("svg"); }
</style></defs><path d="M512 524m-311 0a311 311 0 1 0 622 0 311 311 0 1 0-622 0Z" fill="#EAE9DF" p-id="26518"></path><path d="M266.1 714.4C225.3 661.8 201 595.8 201 524c0-171.8 139.2-311 311-311 83.8 0 159.9 33.2 215.9 87.1 18.1 40.6 28.2 85.5 28.2 132.8 0 180-145.9 325.8-325.8 325.8-59.9 0-116-16.1-164.2-44.3z" fill="#FFFFFF" p-id="26519" data-spm-anchor-id="a313x.7781069.0.i5" class=""></path><path d="M374.9 524.4a136.9 128.4 0 1 0 273.8 0 136.9 128.4 0 1 0-273.8 0Z" fill="#d81e06" p-id="26520" data-spm-anchor-id="a313x.7781069.0.i10" class=""></path><path d="M481 649.5c-60.7-13.1-106-64.2-106-125.1 0-70.9 61.3-128.4 136.9-128.4 23.8 0 46.1 5.7 65.6 15.7 19.1 25 30.4 55.8 30.4 89.1-0.1 73-54.5 134-126.9 148.7z" fill="#de4532" p-id="26521" data-spm-anchor-id="a313x.7781069.0.i4" class=""></path><path d="M462.6 438.1c9.6-5.5 21.8-2.1 27.3 7.5s2.1 21.8-7.5 27.3c-18.4 10.5-30 30-30 51.5 0 11-9 20-20 20s-20-9-20-20c-0.1-36 19.4-68.8 50.2-86.3z" fill="#FFFFFF" p-id="26522"></path><path d="M803 524c0-161.5-129.8-291-291-291-160.7 0-291 130.3-291 291s130.3 291 291 291c161.2 0 291-129.5 291-291z m40 0c0 183.7-147.8 331-331 331-182.8 0-331-148.2-331-331s148.2-331 331-331c183.2 0 331 147.3 331 331z" fill="#707070" p-id="26523" data-spm-anchor-id="a313x.7781069.0.i7" class=""></path></svg>